<svg xmlns="http://www.w3.org/2000/svg" xmlns:xlink="http://www.w3.org/1999/xlink" viewBox="0 0 310.19 202.18"><defs><style>.a{isolation:isolate;}.b{fill:url(#a);}.c{fill:url(#b);}.d{fill:#242e6c;}.e,.j{opacity:0.25;mix-blend-mode:overlay;}.f{fill:#16225b;}.g{fill:#ff9792;}.h{fill:url(#c);}.i{fill:url(#d);}.k{fill:url(#e);}.l{fill:url(#f);}.m{fill:url(#g);}.n{fill:url(#h);}.o{fill:url(#i);}.p{fill:url(#j);}.q{fill:url(#k);}.r{fill:url(#l);}.s{fill:url(#m);}.t{fill:url(#n);}.u{fill:url(#o);}.v{fill:url(#p);}.w{fill:url(#q);}.x{fill:url(#r);}.y{fill:url(#s);}.z{fill:url(#t);}.aa{fill:url(#u);}.ab{fill:url(#v);}.ac{fill:url(#w);}.ad{fill:url(#x);}.ae{fill:url(#y);}.af{fill:url(#z);}.ag{fill:url(#aa);}.ah{fill:url(#ab);}.ai{fill:url(#ac);}.aj{fill:url(#ad);}.ak{fill:url(#ae);}.al{fill:url(#af);}.am{fill:url(#ag);}.an{fill:url(#ah);}.ao{fill:url(#ai);}.ap{fill:url(#aj);}.aq{fill:url(#ak);}.ar{fill:url(#al);}.as,.cd,.ce{fill:none;stroke-linecap:round;stroke-linejoin:round;stroke-width:0.67px;}.as{stroke:url(#am);}.at{fill:url(#an);}.au{fill:url(#ao);}.av{fill:url(#ap);}.aw{fill:url(#aq);}.ax{fill:url(#ar);}.ay{fill:url(#as);}.az{fill:url(#at);}.ba{fill:url(#au);}.bb{fill:url(#av);}.bc{fill:url(#aw);}.bd{fill:url(#ax);}.be{fill:#fff;}.bf{fill:url(#ay);}.bg{fill:url(#az);}.bh{fill:url(#ba);}.bi{fill:url(#bb);}.bj{fill:url(#bc);}.bk{fill:url(#bd);}.bl{fill:url(#be);}.bm{fill:url(#bf);}.bn{fill:url(#bg);}.bo{fill:url(#bh);}.bp{fill:url(#bi);}.bq{fill:url(#bj);}.br{fill:url(#bk);}.bs{fill:url(#bl);}.bt{fill:url(#bm);}.bu{fill:url(#bn);}.bv{fill:url(#bo);}.bw{fill:url(#bp);}.bx{fill:url(#bq);}.by{fill:url(#br);}.bz{fill:url(#bs);}.ca{fill:url(#bt);}.cb{fill:url(#bu);}.cc{fill:url(#bv);}.cd{stroke:url(#bw);}.ce{stroke:url(#bx);}.cf{fill:url(#by);}.cg{fill:url(#bz);}.ch{fill:url(#ca);}.ci{fill:url(#cb);}</style><linearGradient id="a" x1="154.86" y1="200.23" x2="154.22" y2="167.83" gradientUnits="userSpaceOnUse"><stop offset="0" stop-color="#f2eaff"/><stop offset="1" stop-color="#b4cdf6"/></linearGradient><linearGradient id="b" x1="154.59" y1="80.92" x2="155.71" y2="182.44" xlink:href="#a"/><linearGradient id="c" x1="263.63" y1="138.31" x2="267.14" y2="142.78" xlink:href="#a"/><linearGradient id="d" x1="266.34" y1="138.11" x2="271.37" y2="164.8" xlink:href="#a"/><linearGradient id="e" x1="259.29" y1="196" x2="259.29" y2="203.6" gradientUnits="userSpaceOnUse"><stop offset="0" stop-color="#ff9255"/><stop offset="1" stop-color="#e82a6a"/></linearGradient><linearGradient id="f" x1="270.26" y1="196.25" x2="270.26" y2="202.18" xlink:href="#e"/><linearGradient id="g" x1="17.71" y1="328.32" x2="3.94" y2="316.23" gradientTransform="translate(-27.98 -225.41) rotate(-16.54)" xlink:href="#e"/><linearGradient id="h" x1="11.78" y1="324.45" x2="-21.02" y2="295" gradientTransform="translate(-27.98 -225.41) rotate(-16.54)" gradientUnits="userSpaceOnUse"><stop offset="0" stop-color="#6615b2"/><stop offset="1" stop-color="#e050e6"/></linearGradient><linearGradient id="i" x1="73" y1="83.75" x2="64.82" y2="107.66" gradientTransform="matrix(1, 0.05, -0.05, 1, 6.41, -28.58)" xlink:href="#a"/><linearGradient id="j" x1="162.74" y1="-5.14" x2="167.53" y2="65.25" xlink:href="#e"/><linearGradient id="k" x1="157.03" y1="12.37" x2="157.75" y2="30.8" xlink:href="#a"/><linearGradient id="l" x1="164.05" y1="12.37" x2="164.76" y2="30.8" xlink:href="#a"/><linearGradient id="m" x1="171.06" y1="12.37" x2="171.78" y2="30.8" xlink:href="#a"/><linearGradient id="n" x1="42.02" y1="87.73" x2="38.43" y2="127" xlink:href="#a"/><linearGradient id="o" x1="-1683.76" y1="88.11" x2="-1684.24" y2="131.92" gradientTransform="matrix(-1, 0, 0, 1, -1641.03, 0)" xlink:href="#h"/><linearGradient id="p" x1="-1680.48" y1="88.14" x2="-1680.96" y2="131.96" gradientTransform="matrix(-1, 0, 0, 1, -1641.03, 0)" xlink:href="#h"/><linearGradient id="q" x1="-1677.21" y1="88.18" x2="-1677.69" y2="131.99" gradientTransform="matrix(-1, 0, 0, 1, -1641.03, 0)" xlink:href="#h"/><linearGradient id="r" x1="48.46" y1="129.1" x2="49.42" y2="147.18" xlink:href="#a"/><linearGradient id="s" x1="42.85" y1="133.2" x2="42.49" y2="164.09" xlink:href="#a"/><linearGradient id="t" x1="32.54" y1="196.25" x2="32.38" y2="202.4" xlink:href="#e"/><linearGradient id="u" x1="55.73" y1="195.77" x2="55.56" y2="202.27" xlink:href="#e"/><linearGradient id="v" x1="36.5" y1="129.74" x2="37.46" y2="147.81" xlink:href="#a"/><linearGradient id="w" x1="56.53" y1="10.58" x2="58.45" y2="71.4" xlink:href="#a"/><linearGradient id="x" x1="231.64" y1="14.13" x2="263.73" y2="71.78" xlink:href="#e"/><linearGradient id="y" x1="244.61" y1="-137.96" x2="244.61" y2="-117.73" gradientTransform="matrix(0.88, 0.48, -0.48, 0.88, -10.34, 79.88)" xlink:href="#e"/><linearGradient id="z" x1="245.06" y1="-133.93" x2="244.58" y2="-125.43" gradientTransform="matrix(0.88, 0.48, -0.48, 0.88, -10.34, 79.88)" xlink:href="#a"/><linearGradient id="aa" x1="16.34" y1="-382.38" x2="16.38" y2="-370.92" gradientTransform="translate(-95.55 170.67) rotate(73.82)" xlink:href="#e"/><linearGradient id="ab" x1="244.6" y1="-140.88" x2="244.64" y2="-129.43" gradientTransform="matrix(0.88, 0.48, -0.48, 0.88, -10.34, 79.88)" xlink:href="#e"/><linearGradient id="ac" x1="235.21" y1="191.12" x2="235.25" y2="202.58" gradientTransform="translate(-14.22 -44.41) rotate(-16.18)" xlink:href="#e"/><linearGradient id="ad" x1="195.31" y1="124.05" x2="216.44" y2="124.05" xlink:href="#a"/><linearGradient id="ae" x1="183.13" y1="105.59" x2="183.27" y2="119.64" xlink:href="#e"/><linearGradient id="af" x1="190.27" y1="121.02" x2="189.76" y2="112.53" gradientTransform="matrix(1, 0, 0, 1, 0, 0)" xlink:href="#h"/><linearGradient id="ag" x1="196.53" y1="105.51" x2="196.67" y2="119.56" xlink:href="#e"/><linearGradient id="ah" x1="203.57" y1="120.57" x2="203.07" y2="112.08" gradientTransform="matrix(1, 0, 0, 1, 0, 0)" xlink:href="#h"/><linearGradient id="ai" x1="208.4" y1="105.59" x2="208.53" y2="119.64" xlink:href="#e"/><linearGradient id="aj" x1="215.53" y1="121.02" x2="215.03" y2="112.53" gradientTransform="matrix(1, 0, 0, 1, 0, 0)" xlink:href="#h"/><linearGradient id="ak" x1="221.8" y1="105.51" x2="221.93" y2="119.56" xlink:href="#e"/><linearGradient id="al" x1="228.84" y1="120.57" x2="228.33" y2="112.08" gradientTransform="matrix(1, 0, 0, 1, 0, 0)" xlink:href="#h"/><linearGradient id="am" x1="182.85" y1="91.04" x2="231.56" y2="91.04" xlink:href="#a"/><linearGradient id="an" x1="185.68" y1="87.35" x2="188.41" y2="87.35" xlink:href="#a"/><linearGradient id="ao" x1="195.25" y1="96.92" x2="197.98" y2="96.92" xlink:href="#a"/><linearGradient id="ap" x1="201.19" y1="90.99" x2="203.92" y2="90.99" xlink:href="#a"/><linearGradient id="aq" x1="204.71" y1="94.51" x2="207.44" y2="94.51" xlink:href="#a"/><linearGradient id="ar" x1="213.34" y1="86.36" x2="216.07" y2="86.36" xlink:href="#a"/><linearGradient id="as" x1="218.06" y1="90.67" x2="220.79" y2="90.67" xlink:href="#a"/><linearGradient id="at" x1="223.85" y1="85.13" x2="226.58" y2="85.13" xlink:href="#a"/><linearGradient id="au" x1="75.76" y1="103.6" x2="112.19" y2="103.6" xlink:href="#e"/><linearGradient id="av" x1="122.85" y1="74.48" x2="116.97" y2="130.41" gradientTransform="matrix(1, 0, 0, 1, 0, 0)" xlink:href="#h"/><linearGradient id="aw" x1="102.25" y1="83.42" x2="118.91" y2="83.42" xlink:href="#a"/><linearGradient id="ax" x1="152.26" y1="87.4" x2="151.3" y2="75.19" gradientTransform="matrix(1, 0, 0, 1, 0, 0)" xlink:href="#h"/><linearGradient id="ay" x1="141.02" y1="90.44" x2="162.15" y2="90.44" xlink:href="#a"/><linearGradient id="az" x1="141.02" y1="93.72" x2="162.15" y2="93.72" xlink:href="#a"/><linearGradient id="ba" x1="141.02" y1="96.99" x2="162.15" y2="96.99" xlink:href="#a"/><linearGradient id="bb" x1="141.02" y1="100.26" x2="162.15" y2="100.26" xlink:href="#a"/><linearGradient id="bc" x1="141.02" y1="103.53" x2="162.15" y2="103.53" xlink:href="#a"/><linearGradient id="bd" x1="141.02" y1="106.81" x2="162.15" y2="106.81" xlink:href="#a"/><linearGradient id="be" x1="141.02" y1="110.08" x2="162.15" y2="110.08" xlink:href="#a"/><linearGradient id="bf" x1="141.02" y1="113.35" x2="162.15" y2="113.35" xlink:href="#a"/><linearGradient id="bg" x1="141.02" y1="116.62" x2="155.13" y2="116.62" xlink:href="#a"/><linearGradient id="bh" x1="255.25" y1="91.01" x2="227.72" y2="138.18" gradientTransform="translate(-1.88 218.76) rotate(-48.25)" xlink:href="#a"/><linearGradient id="bi" x1="74.04" y1="-254.94" x2="75.2" y2="-226.84" gradientTransform="matrix(-0.73, 0.68, -0.68, -0.73, 123.04, -125.6)" xlink:href="#e"/><linearGradient id="bj" x1="73.88" y1="-254.79" x2="75.91" y2="-214.92" gradientTransform="translate(3.91 211.93) rotate(48.43)" xlink:href="#e"/><linearGradient id="bk" x1="111.99" y1="-249.02" x2="84.96" y2="-248.27" gradientTransform="matrix(0.67, 0.75, -0.75, 0.67, 5.5, 210)" xlink:href="#e"/><linearGradient id="bl" x1="104.06" y1="-245.18" x2="86.04" y2="-244.68" gradientTransform="matrix(0.67, 0.75, -0.75, 0.67, 5.5, 210)" xlink:href="#h"/><linearGradient id="bm" x1="106.83" y1="-241.54" x2="85.66" y2="-240.95" gradientTransform="matrix(0.67, 0.75, -0.75, 0.67, 5.5, 210)" xlink:href="#e"/><linearGradient id="bn" x1="111.99" y1="-237.95" x2="84.96" y2="-237.2" gradientTransform="matrix(0.67, 0.75, -0.75, 0.67, 5.5, 210)" xlink:href="#h"/><linearGradient id="bo" x1="121.08" y1="133.06" x2="122.76" y2="196.03" xlink:href="#e"/><linearGradient id="bp" x1="108.08" y1="148.12" x2="107.04" y2="173.82" xlink:href="#a"/><linearGradient id="bq" x1="129.55" y1="148.39" x2="129.33" y2="153.75" xlink:href="#a"/><linearGradient id="br" x1="129.55" y1="151.6" x2="129.33" y2="156.96" xlink:href="#a"/><linearGradient id="bs" x1="129.55" y1="154.82" x2="129.33" y2="160.18" xlink:href="#a"/><linearGradient id="bt" x1="129.55" y1="158.04" x2="129.33" y2="163.4" xlink:href="#a"/><linearGradient id="bu" x1="5.87" y1="141.06" x2="20.39" y2="159.58" xlink:href="#e"/><linearGradient id="bv" x1="20.26" y1="166.6" x2="26.64" y2="143.62" gradientTransform="matrix(1, 0, 0, 1, 0, 0)" xlink:href="#h"/><linearGradient id="bw" x1="17.63" y1="156.21" x2="25.23" y2="156.21" xlink:href="#a"/><linearGradient id="bx" x1="8.04" y1="164.94" x2="19.37" y2="164.94" xlink:href="#a"/><linearGradient id="by" x1="19.82" y1="179.3" x2="17.59" y2="234.5" xlink:href="#a"/><linearGradient id="bz" x1="306.36" y1="129.65" x2="292.35" y2="167.84" xlink:href="#e"/><linearGradient id="ca" x1="292.01" y1="170.16" x2="288.54" y2="143.82" gradientTransform="matrix(1, 0, 0, 1, 0, 0)" xlink:href="#h"/><linearGradient id="cb" x1="292.31" y1="156.7" x2="287.89" y2="266.13" xlink:href="#a"/></defs><title>Asset 1</title><g class="a"><path class="b" d="M194.86,202.18H114.93l10-3.35a17.63,17.63,0,0,0,12-16.73V162.82h35.87V182.1a17.58,17.58,0,0,0,12,16.73Z"/><rect class="c" x="62.02" y="47.79" width="185.75" height="121.87" rx="4.03"/><rect class="d" x="66.09" y="51.86" width="177.61" height="101.98" rx="3.61"/><path class="e" d="M173.52,187,137,175.59v-5.93h35.87V182.1A17.83,17.83,0,0,0,173.52,187Z"/><path class="e" d="M247.77,99.71v42.68l-26.65-29.86a4.36,4.36,0,0,1,.35-6.15l14.7-13.12a4.36,4.36,0,0,1,6.15.35Z"/><path class="e" d="M154.81,152.09v16.84a4.3,4.3,0,0,1-.07.73H95a4.32,4.32,0,0,1-.06-.73V152.09a4,4,0,0,1,4-4h51.81A4,4,0,0,1,154.81,152.09Z"/><path class="f" d="M271.52,196.24h0a6.08,6.08,0,0,1-1.34.63,1.5,1.5,0,0,1-.71.07h0c-.73-.17-6-16.83-6.7-19.55s.62-20.43.62-20.43l6.08,2.63,1.13,2.8s0,.15-.07.42c-.29,1.76-1.37,8.44-1.36,10.51C269.15,175.73,271.52,196.24,271.52,196.24Z"/><path class="e" d="M271.52,196.24h0a6.08,6.08,0,0,1-1.34.63,4.34,4.34,0,0,1-.26-1.24c-.36-4-5.09-16.22-5.27-20.47s1.21-11,1.21-11l4.66-1.33c-.29,1.76-1.37,8.44-1.36,10.51C269.15,175.73,271.52,196.24,271.52,196.24Z"/><path class="d" d="M267.1,180.39c-.74,1-3,13.31-3.73,15.86h0a2.44,2.44,0,0,1-.14.42l0,0-.2,0c-.19,0-.46.09-.77.13a2.83,2.83,0,0,1-1.82-.18c-.56-.47.89-13.72.75-15.32s5.25-14.44,5.16-14.92-.55-2.64-.55-2.64a10.11,10.11,0,0,1-.48-3.43,4.44,4.44,0,0,1,.86-2.55l8.23,2.17C275.65,166.65,267.92,179.32,267.1,180.39Z"/><path class="g" d="M265.75,138.36l.58.69-.72,1.13-2.47,1s-.68-.76-1.46-1.71c-1.08-1.3-2.37-2.95-2.37-3.44,0-.84,3.55-8.14,3.83-9s.43-2.28.75-2.28.32,1.2.32,1.2a20.28,20.28,0,0,1,2.84-2.47c.4,0-1.6,3.07-2.08,4s-1.77,7.86-1.77,7.86Z"/><path class="h" d="M268.4,140.73l-1.75,3.59s-3.71-2.67-3.51-3.11,2.39-2.4,2.83-2.36a.75.75,0,0,1,.3.14A20.43,20.43,0,0,1,268.4,140.73Z"/><path class="d" d="M270.83,140.21l0,0c-.49-.31,0-2.29-.57-2.59s-1.92.33-1.77-.35,1.26-2.79-1.13-3.21a4.38,4.38,0,0,1-.83-.4,3.3,3.3,0,0,1-1.9-3,1.88,1.88,0,0,1,3.06-1.55c.65.56,1.28,1.94,1.61,2.06s1-1.59,2.69-1,.9,3.51.9,3.51,1.2-.49,1.41,1.49S271.37,140.45,270.83,140.21Z"/><path class="g" d="M270.88,140.41l-1,.13-1.48.19a4.8,4.8,0,0,0-.27-1.36.5.5,0,0,0-.17-.24.44.44,0,0,0-.33,0c-.44.08-1.08.46-1.26-.28a11.45,11.45,0,0,1-.05-4.2c.05-.32.11-.61.15-.84l0-.13.07,0a4.54,4.54,0,0,0,.76.36c1,.18,1.4.67,1.49,1.22a4.92,4.92,0,0,1-.36,2c-.09.43.42.34,1,.29a1.54,1.54,0,0,1,.82.06c.53.3.08,2.28.57,2.59A1.4,1.4,0,0,0,270.88,140.41Z"/><path class="i" d="M274.92,159.19a3.14,3.14,0,0,1-.54.83,1.17,1.17,0,0,1-.41.3c-1.84.86-6.09.25-8.59-.68a3.43,3.43,0,0,1-1.88-1.17c-.6-1.38.86-4.22,1.28-5.9a22.28,22.28,0,0,0,.33-4.64s-3.92.72-3.95.51v0c0-.43-.2-4.3-.75-4.85,1-.1,4-1.74,6.34-2.57h0c.27-.1.52-.18.77-.25a14.88,14.88,0,0,1,2.23-.5,4.15,4.15,0,0,1,1,0c1.76.45,2.87,2.1,3.58,4.05,1.14,3.09,1.29,7,1.48,8.18A14.9,14.9,0,0,1,274.92,159.19Z"/><path class="g" d="M261.16,148.44s-1.86.21-3.85.32-3.91.12-4.47-.23c-1.14-.72-5.92-8.44-6.22-9.4a17.36,17.36,0,0,0-2.76-4.25c-1.08-1.26-1.31-2.27-.78-2.27s3.6,3,3.6,3-.18-1,0-1.23.66,2.07,1.07,2.75,7.31,7,7.61,6.86,3.54-.36,4.67-.45l.38,0c.55.55.71,4.42.75,4.85Z"/><path class="e" d="M274.92,159.19a2.2,2.2,0,0,1-.95,1.13c-2.58,1.2-9.87-.48-10.47-1.85s.86-4.22,1.28-5.9a22.28,22.28,0,0,0,.33-4.64s3.65-1.22,4.13-.94-.24,3.35-.84,5.23,4.12,2.83,2.48,3.79-2.56,1.84-1,2.52C271.27,159.13,274.58,157.63,274.92,159.19Z"/><path class="e" d="M274.38,144.24c-1.09-.53-2.93-2.9-4.21-3.25a8.25,8.25,0,0,0-3.4,0c.27-.1.52-.18.77-.25a8.89,8.89,0,0,1,3.26-.54C272.56,140.64,273.67,142.29,274.38,144.24Z"/><path class="e" d="M266.27,139a.75.75,0,0,0-.3-.14c-.44,0-2.63,1.92-2.83,2.36,0,0-.68-.76-1.46-1.71a15.57,15.57,0,0,1,4.07-1.14Z"/><path class="e" d="M261.16,148.44s-1.86.21-3.85.32c.89-.54,1.67-1.18,1.76-1.81a18.42,18.42,0,0,1,1-3.36l.38,0c.55.55.71,4.42.75,4.85Z"/><g class="j"><path d="M268.82,135.26c-.37-.56-1-.3-1.9-.45a1.9,1.9,0,0,1-.6-.2c.05-.32.11-.61.15-.84l.1-.09a4.54,4.54,0,0,0,.76.36C268.35,134.22,268.73,134.71,268.82,135.26Z"/><path d="M270.8,140.19a4.15,4.15,0,0,0-1,0c-.28-.5-1.1-.7-1.64-.86a.5.5,0,0,0-.17-.24.44.44,0,0,0-.33,0c0-.34,1.45-.39,1.7-.92a1.4,1.4,0,0,0,.08-.63,1.54,1.54,0,0,1,.82.06C270.76,137.9,270.31,139.88,270.8,140.19Z"/></g><path class="k" d="M264.18,202.18H254.4c1-1.55,6-5.47,6-5.47.57.49,2.46.09,2.79,0l0,0Z"/><path class="l" d="M269.48,198.15a4.24,4.24,0,0,0,0-1.2,3.9,3.9,0,0,0,2.05-.7l2.57,5.93h-7.62C266.57,201.67,269.38,198.91,269.48,198.15Z"/><path class="e" d="M267.1,180.39c-.74,1-3,13.31-3.73,15.86h0l-.37.5-1,1.31c0-.07.09-.5.21-1.18.52-2.81,1.82-9.85,2.58-12.95,1-3.9,4.39-10.13,5.45-12.2s1.5-7-1.86-9.18c-1.1-.71-2.17-1.46-3.11-2.16a6.83,6.83,0,0,1,.09-.76c2.5.93,6.75,1.54,8.59.68a1.17,1.17,0,0,0,.41-.3C275.65,166.65,267.92,179.32,267.1,180.39Z"/><path class="m" d="M76.91,81.51a5,5,0,0,1-4.88,3,5.19,5.19,0,0,1-1.75-.41l-7.49-3.27,3.36-7.72.66-1.51,7.5,3.27A5,5,0,0,1,76.91,81.51Z"/><path class="e" d="M75.33,82.62a5.07,5.07,0,0,1-1,1.46,5.06,5.06,0,0,1-2.34.44,5.19,5.19,0,0,1-1.75-.41l-7.49-3.27,3.36-7.72L72.73,76A5,5,0,0,1,75.33,82.62Z"/><path class="d" d="M39.5,70.67,47,74l4-9.23-7.5-3.27a5,5,0,0,0-6.63,2.6h0A5,5,0,0,0,39.5,70.67Z"/><path class="d" d="M67.91,84.61l0,.06-4.44,5.19-3,3.44a2,2,0,0,1-1.59.63,2,2,0,0,1-1.6-3.16l3.26-5,2.55-3.91,4.53,2.57Z"/><path class="n" d="M64,68.88,58.85,80.6,37.71,77.3A2.1,2.1,0,0,1,36,75a2.23,2.23,0,0,1,.16-.56L44,56.49a2.1,2.1,0,0,1,3.17-.86l15,11.81Z"/><path class="o" d="M76,74.43,71.07,85.62a2.06,2.06,0,0,1-2.72,1.07L66.73,86l-4.92-2.15L60,83.06A2.06,2.06,0,0,1,59,80.34l.63-1.44,4.26-9.76a2.06,2.06,0,0,1,2.72-1.07l8.32,3.63a2.3,2.3,0,0,1,.43.25A2.09,2.09,0,0,1,76,74.43Z"/><path class="e" d="M64,68.88,58.85,80.6,37.71,77.3A2.1,2.1,0,0,1,36,75c5.89.62,18.37,1.72,21.24.2s4.37-5.87,4.87-7.72Z"/><path class="e" d="M76,74.43,71.07,85.62a2.06,2.06,0,0,1-2.72,1.07L60,83.06A2.06,2.06,0,0,1,59,80.34l.63-1.44c2.09,1,7.64,3.54,9.57,3.72s4.9-7.31,6.16-10.67A2.09,2.09,0,0,1,76,74.43Z"/><path class="e" d="M66.73,86l-3.31,3.87a29.66,29.66,0,0,1-2.88-4.07l1.27-2Z"/><path class="p" d="M186.32,0H142.18a4,4,0,0,0-4,4V30a4,4,0,0,0,4,4h14v5a1.23,1.23,0,0,0,2.09.87L164.18,34h22.14a4,4,0,0,0,4-4V4A4,4,0,0,0,186.32,0Z"/><circle class="q" cx="157.23" cy="17.6" r="1.44"/><circle class="r" cx="164.25" cy="17.6" r="1.44"/><path class="s" d="M172.7,17.6a1.44,1.44,0,1,1-1.43-1.44A1.43,1.43,0,0,1,172.7,17.6Z"/><path class="t" d="M29.42,104.93H50a1.88,1.88,0,0,1,1.88,1.88v12.1A1.88,1.88,0,0,1,50,120.79H43.49v2.36a.57.57,0,0,1-1,.4l-2.75-2.76H29.42a1.88,1.88,0,0,1-1.88-1.88v-12.1A1.88,1.88,0,0,1,29.42,104.93Z"/><path class="u" d="M42.33,113.14a.67.67,0,1,0,.67-.67A.67.67,0,0,0,42.33,113.14Z"/><path class="v" d="M39.05,113.14a.67.67,0,1,0,.67-.67A.67.67,0,0,0,39.05,113.14Z"/><path class="w" d="M35.78,113.14a.67.67,0,1,0,.67-.67A.67.67,0,0,0,35.78,113.14Z"/><path class="d" d="M54.59,195.76l-.1.06a2.83,2.83,0,0,1-.47.27c-.6.28-1.51.51-2-.41-.69-1.44-9-30.65-9-30.65s-.59,3.51-1.87,10S35,196.08,34.39,196.8l0,0c-.56.69-1.34,1.07-2.6,0,1.35-4.87,2.87-21,3.35-26.74.1-1.25.25-2.65.41-4.09.52-4.39,1.22-9.09,1.43-10.48-.12,1.51,1.13,2.66,4,3.18,2.55.46,5.12,0,6.2-1.2.11.31.21.64.32,1C50.83,168.94,54.59,195.76,54.59,195.76Z"/><path class="e" d="M47.52,158.45c-1.92,2.62-7.36,1.19-7.74,2.29s.53,6.82-.48,6.17a12.53,12.53,0,0,0-3.77-.94c.52-4.39,1.22-9.09,1.43-10.48-.12,1.51,1.13,2.66,4,3.18,2.55.46,5.12,0,6.2-1.2C47.31,157.78,47.41,158.11,47.52,158.45Z"/><path class="x" d="M52.07,140.21a.61.61,0,0,1,0,.14,1.43,1.43,0,0,1-.06.38c-.18.41-2.25,1.07-3.55,2.53,0-.09,0-.17,0-.24a8.63,8.63,0,0,0-1.06-3.46c-.41-.79-.86-1.39-1.19-1.47a1.33,1.33,0,0,0-.3-.06h0s3.77-1.09,4.61-1.85l.11.09a3.9,3.9,0,0,1,.8,1.13A7,7,0,0,1,52.07,140.21Z"/><path class="y" d="M47.17,152.33c-.24,2.33.87,2.39.54,4.19a2,2,0,0,1-.51.95,3.8,3.8,0,0,1-1.47.91,9.41,9.41,0,0,1-4.73.29c-2.91-.52-4.16-1.67-4-3.18h0c0-.16,0-.27,0-.34v-.06c.39-1.7,3.74-9.13,3.5-10.5l0-.16a1.86,1.86,0,0,0-.62-1,3.24,3.24,0,0,0-2.85-.38,11.6,11.6,0,0,1,2.7-3.08,9.27,9.27,0,0,1,3.89-1.88,12.27,12.27,0,0,1,2.3-.06h0a1.33,1.33,0,0,1,.3.06c.33.08.78.68,1.19,1.47A8.63,8.63,0,0,1,48.46,143c0,.07,0,.15,0,.24C48.37,145.13,47.4,150.1,47.17,152.33Z"/><path class="g" d="M61.67,127.26s-3.55,8.68-4.15,9.52-4.37,2.95-5.46,3.57a.61.61,0,0,0,0-.14,7,7,0,0,0-.64-2.81,3.9,3.9,0,0,0-.8-1.13c.93-.45,4.77-2.33,5.3-2.75a50,50,0,0,0,4.22-7.12v0a2.05,2.05,0,0,0,.21-.58c0-.66.82-5.21,1.75-5.26a35.74,35.74,0,0,0,0,4.14c.16,0,.26-1.11.58-1S61.67,127.26,61.67,127.26Z"/><path class="e" d="M60.15,126.4c-.58,1.63-2.23,6.11-3.47,7.61-.85,1-3.12,2.29-5.25,3.39-1.72.89-3.33,1.67-4,2.16-1.57,1.08-2.24,3.91-4,3.21s-1.38-3-2.07-3.05a5.71,5.71,0,0,0-1.58.25,9.27,9.27,0,0,1,3.89-1.88,12.27,12.27,0,0,1,2.3-.06s3.77-1.09,4.61-1.85l.11.09c.93-.45,4.77-2.33,5.3-2.75A50,50,0,0,0,60.15,126.4Z"/><path class="z" d="M35,202.18H29.81a21.75,21.75,0,0,1,2-5.38c1.26,1.1,2,.72,2.6,0A34.84,34.84,0,0,1,35,202.18Z"/><path class="aa" d="M59.22,202.18H52.07v-6.5c.59,1.24,2,.4,2.42.14a11.9,11.9,0,0,0,3.24,3.86A3.27,3.27,0,0,1,59.22,202.18Z"/><path class="d" d="M47.86,133.45c0,1.28-1.86,3.48-1.89,4.14l-.06-.08a7.85,7.85,0,0,1-1.52-3.08,10.68,10.68,0,0,1-3.87,0,2.79,2.79,0,0,1-2.27-2.31,1.44,1.44,0,0,0,1.14,0,3.55,3.55,0,0,1,.77-3.77c.34.86,1.83,1.08,3.06.8s3.38.48,3.77,1.56,0,1.41,0,1.44S47.83,132.21,47.86,133.45Z"/><path class="g" d="M45.91,137.51a3.15,3.15,0,0,1-1,1.28l-.25.19a3.11,3.11,0,0,1-1.32.62,3.25,3.25,0,0,1-.76-.13,2.63,2.63,0,0,1-.35-.15,2.3,2.3,0,0,1-1.06-1.11,9.41,9.41,0,0,1-.53-2.52c-.06-.52-.09-1-.1-1.22a10.68,10.68,0,0,0,3.87,0,1.45,1.45,0,0,0,0,.28A8.91,8.91,0,0,0,45.91,137.51Z"/><path class="g" d="M44.14,142c-.66.21-1.76-.51-1.61-1.92,0-.11,0-.21,0-.3s0-.21,0-.31a2.87,2.87,0,0,0,.76.14,3.11,3.11,0,0,0,1.32-.62l.25-.19a4,4,0,0,0,.15,1.37l0,.11A1.62,1.62,0,0,1,44.14,142Z"/><path class="e" d="M45.07,140.27a4.48,4.48,0,0,1-2.52-.5c0-.12,0-.21,0-.31a2.87,2.87,0,0,0,.76.14,3.11,3.11,0,0,0,1.32-.62l.25-.19a4,4,0,0,0,.15,1.37Z"/><path class="e" d="M45.91,157.65a1.36,1.36,0,0,1-.18.73,9.41,9.41,0,0,1-4.73.29c-2.91-.52-4.16-1.67-4-3.18h0c0-.16,0-.27,0-.34v-.06c.39-1.7,3.74-9.13,3.5-10.5l0-.16a8.83,8.83,0,0,1,1,3.77c.07,2.83.19,4.67.83,5.19s-1.43.64-1.22,2.51S45.81,156.37,45.91,157.65Z"/><path class="ab" d="M38.67,152.93a2.71,2.71,0,0,1-1.06,0,7,7,0,0,1-3.08-1.39h0c-.15-.14-.22-.26-.2-.36.12-.54,1.94-7.69,2.69-8.11a2.17,2.17,0,0,1,1.52-.24l.19,0a3.11,3.11,0,0,1,.89.4,2.22,2.22,0,0,1,.58.51C41.05,144.83,40.72,146.91,38.67,152.93Z"/><path class="g" d="M39.79,168.38c-1-.8-.88-2-1.24-2.47s-5-3.67-5.07-5.95a72.43,72.43,0,0,1,1.05-8.43,7,7,0,0,0,3.08,1.39,2.71,2.71,0,0,0,1.06,0c-.28.84-1.92,5.91-1.92,5.91s4,5.87,4.55,7.07a1.32,1.32,0,0,1,.13.38h0C41.67,167.5,40.68,169.1,39.79,168.38Z"/><path class="e" d="M41.43,166.29c-.79-1.76-6.11-6-6.23-6.89s.71-3.19,1.75-5.07a12.11,12.11,0,0,0,.66-1.41c1-2.37,2.16-6.11,2.11-7.56a3.76,3.76,0,0,0-1.18-2.55l.19,0,1.47.91c.85,1.07.52,3.15-1.53,9.17-.28.84-1.92,5.91-1.92,5.91s4,5.87,4.55,7.07A1.32,1.32,0,0,1,41.43,166.29Z"/><path class="e" d="M54,196.09c-.6.28-1.51.51-2-.41-.69-1.44-9-30.65-9-30.65s1.79-.38,2.86,3.53C46.89,172.13,50.82,192.59,54,196.09Z"/><path class="e" d="M44.43,134.71a4.23,4.23,0,0,1-3.81,1c-.06-.52-.09-1-.1-1.22a10.68,10.68,0,0,0,3.87,0A1.45,1.45,0,0,0,44.43,134.71Z"/><path class="ac" d="M66.24,31.65h-1.7a7.27,7.27,0,0,0-.79-1.88L65,28.56a.8.8,0,0,0,0-1.14L63.4,25.86a.8.8,0,0,0-1.14,0l-1.21,1.21a7.27,7.27,0,0,0-1.88-.79v-1.7a.81.81,0,0,0-.81-.81h-2.2a.81.81,0,0,0-.81.81v1.7a7.34,7.34,0,0,0-1.89.79l-1.21-1.21a.8.8,0,0,0-1.14,0l-1.56,1.56a.81.81,0,0,0,0,1.14l1.21,1.21A7.25,7.25,0,0,0,50,31.65H48.27a.81.81,0,0,0-.81.81v2.2a.81.81,0,0,0,.81.81H50a7.31,7.31,0,0,0,.78,1.89l-1.21,1.21a.81.81,0,0,0,0,1.14l1.56,1.56a.81.81,0,0,0,1.14,0l1.21-1.21a7.31,7.31,0,0,0,1.89.78v1.71a.81.81,0,0,0,.81.81h2.2a.81.81,0,0,0,.81-.81V40.84a7.25,7.25,0,0,0,1.88-.78l1.21,1.21a.81.81,0,0,0,1.14,0L65,39.71a.8.8,0,0,0,0-1.14l-1.21-1.21a7.34,7.34,0,0,0,.79-1.89h1.7a.81.81,0,0,0,.81-.81v-2.2A.81.81,0,0,0,66.24,31.65Zm-9,6.5a4.59,4.59,0,1,1,4.59-4.59A4.6,4.6,0,0,1,57.26,38.15Z"/><path class="ad" d="M245.92,23.92a8,8,0,1,0-1.16,12.3l7.08,7.08a1.5,1.5,0,0,0,2.11,0,1.48,1.48,0,0,0,0-2.11l-7.08-7.08A8,8,0,0,0,245.92,23.92Zm-2.11,9.23a5,5,0,1,1,0-7.12A5,5,0,0,1,243.81,33.15Z"/><path class="ae" d="M271.05,85.16a4.47,4.47,0,1,1-1.76-6.07A4.47,4.47,0,0,1,271.05,85.16Z"/><path class="af" d="M263.64,89.35h0a1.6,1.6,0,0,1-.63-2.17l.54-1a1.6,1.6,0,0,1,2.17-.63h0a1.6,1.6,0,0,1,.63,2.17l-.54,1A1.6,1.6,0,0,1,263.64,89.35Z"/><path class="ag" d="M272.61,80.9h0a.28.28,0,0,1,.19-.35l2.53-.73a.26.26,0,0,1,.34.19h0a.27.27,0,0,1-.19.34l-2.53.74A.28.28,0,0,1,272.61,80.9Z"/><path class="ah" d="M270.05,77.7h0a.29.29,0,0,1-.11-.38L271.21,75a.29.29,0,0,1,.38-.11h0a.29.29,0,0,1,.11.38l-1.27,2.31A.27.27,0,0,1,270.05,77.7Z"/><path class="ai" d="M266,77.25h0a.28.28,0,0,1-.34-.19l-.74-2.53a.3.3,0,0,1,.19-.35h0a.29.29,0,0,1,.35.19l.73,2.53A.27.27,0,0,1,266,77.25Z"/><rect class="e" x="173.91" y="78.81" width="63.94" height="49.75" rx="4.03"/><path class="aj" d="M216.28,124.21H195.47a.16.16,0,0,1-.16-.16h0a.17.17,0,0,1,.16-.16h20.81a.16.16,0,0,1,.16.16h0A.16.16,0,0,1,216.28,124.21Z"/><path class="ak" d="M183.19,120.23h0a1.09,1.09,0,0,1-1.08-1.08v-14.7a1.09,1.09,0,0,1,1.08-1.08h0a1.09,1.09,0,0,1,1.08,1.08v14.7A1.09,1.09,0,0,1,183.19,120.23Z"/><path class="al" d="M189.89,120.23h0a1.08,1.08,0,0,1-1.07-1.08v-8.8a1.08,1.08,0,0,1,1.07-1.08h0a1.08,1.08,0,0,1,1.08,1.08v8.8A1.08,1.08,0,0,1,189.89,120.23Z"/><path class="am" d="M196.6,120.23h0a1.09,1.09,0,0,1-1.08-1.08V105.81a1.08,1.08,0,0,1,1.08-1.07h0a1.08,1.08,0,0,1,1.08,1.07v13.34A1.09,1.09,0,0,1,196.6,120.23Z"/><path class="an" d="M203.3,120.23h0a1.09,1.09,0,0,1-1.08-1.08v-6.27a1.09,1.09,0,0,1,1.08-1.08h0a1.09,1.09,0,0,1,1.08,1.08v6.27A1.09,1.09,0,0,1,203.3,120.23Z"/><path class="ao" d="M208.46,120.23h0a1.08,1.08,0,0,1-1.08-1.08v-14.7a1.08,1.08,0,0,1,1.08-1.08h0a1.08,1.08,0,0,1,1.07,1.08v14.7A1.08,1.08,0,0,1,208.46,120.23Z"/><path class="ap" d="M215.16,120.23h0a1.09,1.09,0,0,1-1.08-1.08v-8.8a1.09,1.09,0,0,1,1.08-1.08h0a1.09,1.09,0,0,1,1.08,1.08v8.8A1.09,1.09,0,0,1,215.16,120.23Z"/><path class="aq" d="M221.86,120.23h0a1.08,1.08,0,0,1-1.07-1.08V105.81a1.07,1.07,0,0,1,1.07-1.07h0a1.07,1.07,0,0,1,1.08,1.07v13.34A1.08,1.08,0,0,1,221.86,120.23Z"/><path class="ar" d="M228.57,120.23h0a1.09,1.09,0,0,1-1.08-1.08v-6.27a1.09,1.09,0,0,1,1.08-1.08h0a1.09,1.09,0,0,1,1.08,1.08v6.27A1.09,1.09,0,0,1,228.57,120.23Z"/><polyline class="as" points="183.19 91.21 187.05 87.35 196.64 96.94 202.6 90.98 206.28 94.66 214.74 86.2 219.46 90.92 225.24 85.13 231.22 91.11"/><path class="at" d="M188.41,87.35A1.37,1.37,0,1,1,187.05,86,1.36,1.36,0,0,1,188.41,87.35Z"/><path class="au" d="M198,96.92a1.37,1.37,0,1,1-1.36-1.36A1.36,1.36,0,0,1,198,96.92Z"/><circle class="av" cx="202.56" cy="90.99" r="1.36"/><path class="aw" d="M207.44,94.51a1.37,1.37,0,1,1-1.37-1.37A1.36,1.36,0,0,1,207.44,94.51Z"/><circle class="ax" cx="214.7" cy="86.36" r="1.36"/><circle class="ay" cx="219.42" cy="90.67" r="1.36"/><path class="az" d="M226.58,85.13a1.37,1.37,0,1,1-1.37-1.36A1.37,1.37,0,0,1,226.58,85.13Z"/><path class="ba" d="M112.19,128.17a26.5,26.5,0,1,1-9.94-51.07h0v8.68h0a17.82,17.82,0,1,0,6.69,34.33Z"/><path class="bb" d="M128.75,103.6a26.51,26.51,0,0,1-16.56,24.57l-3.25-8.06a17.81,17.81,0,0,0,4.51-30.37L118.91,83A26.42,26.42,0,0,1,128.75,103.6Z"/><path class="bc" d="M118.91,83l-5.46,6.75a17.77,17.77,0,0,0-11.2-4V77.1A26.37,26.37,0,0,1,118.91,83Z"/><rect class="e" x="135.15" y="78.63" width="32.88" height="49.94" rx="4.03"/><path class="bd" d="M154.94,78.81a3.36,3.36,0,1,1-3.35-3.35A3.36,3.36,0,0,1,154.94,78.81Z"/><path class="be" d="M152.69,78.81a1.11,1.11,0,1,1-1.1-1.1A1.1,1.1,0,0,1,152.69,78.81Z"/><path class="bf" d="M162,90.6H141.18a.16.16,0,0,1-.16-.16h0a.16.16,0,0,1,.16-.16H162a.16.16,0,0,1,.16.16h0A.16.16,0,0,1,162,90.6Z"/><path class="bg" d="M162,93.88H141.18a.16.16,0,0,1-.16-.16h0a.16.16,0,0,1,.16-.16H162a.16.16,0,0,1,.16.16h0A.16.16,0,0,1,162,93.88Z"/><path class="bh" d="M162,97.15H141.18A.16.16,0,0,1,141,97h0a.16.16,0,0,1,.16-.16H162a.16.16,0,0,1,.16.16h0A.16.16,0,0,1,162,97.15Z"/><path class="bi" d="M162,100.42H141.18a.16.16,0,0,1-.16-.16h0a.16.16,0,0,1,.16-.16H162a.16.16,0,0,1,.16.16h0A.16.16,0,0,1,162,100.42Z"/><path class="bj" d="M162,103.69H141.18a.16.16,0,0,1-.16-.16h0a.16.16,0,0,1,.16-.16H162a.16.16,0,0,1,.16.16h0A.16.16,0,0,1,162,103.69Z"/><path class="bk" d="M162,107H141.18a.16.16,0,0,1-.16-.15h0a.16.16,0,0,1,.16-.16H162a.16.16,0,0,1,.16.16h0A.16.16,0,0,1,162,107Z"/><path class="bl" d="M162,110.24H141.18a.16.16,0,0,1-.16-.16h0a.16.16,0,0,1,.16-.16H162a.16.16,0,0,1,.16.16h0A.16.16,0,0,1,162,110.24Z"/><path class="bm" d="M162,113.51H141.18a.16.16,0,0,1-.16-.16h0a.16.16,0,0,1,.16-.16H162a.16.16,0,0,1,.16.16h0A.16.16,0,0,1,162,113.51Z"/><rect class="bn" x="141.02" y="116.46" width="14.11" height="0.32" rx="0.15"/><rect class="bo" x="218.67" y="97.27" width="49.27" height="28.42" rx="4.36" transform="translate(164.45 -144.27) rotate(48.25)"/><circle class="bp" cx="237.23" cy="104.49" r="8.62" transform="translate(125.88 338.57) rotate(-88.33)"/><path class="e" d="M241.16,108.92a5.93,5.93,0,1,1,.5-8.37A5.92,5.92,0,0,1,241.16,108.92Z"/><path class="bq" d="M234.05,106.53l.06,0a.47.47,0,0,0,.08-.62,3.75,3.75,0,0,1-.46-.85.48.48,0,0,1,.22-.6l.26-.13a.47.47,0,0,1,.65.25,3.62,3.62,0,0,0,.64,1.07c.39.44.83.59,1.14.32s.26-.67-.06-1.41c-.45-1.07-.56-2,.18-2.64a1.83,1.83,0,0,1,2.26-.1.47.47,0,0,0,.55-.06l.1-.09a.48.48,0,0,1,.67,0l0,0a.47.47,0,0,1,0,.66h0a.49.49,0,0,0-.08.63,3.33,3.33,0,0,1,.34.58.49.49,0,0,1-.22.62l-.22.11a.48.48,0,0,1-.65-.23,3.3,3.3,0,0,0-.55-.87c-.44-.5-.8-.47-1-.28s-.18.64.16,1.52c.49,1.2.39,2-.3,2.56a1.89,1.89,0,0,1-2.36.09.48.48,0,0,0-.55,0l-.17.15a.47.47,0,0,1-.66,0l-.05,0A.48.48,0,0,1,234.05,106.53Z"/><path class="br" d="M258.68,121.16,249.61,111a.52.52,0,0,1,0-.73h0a.52.52,0,0,1,.72,0l9.07,10.15a.53.53,0,0,1-.05.73h0A.51.51,0,0,1,258.68,121.16Z"/><path class="bs" d="M252.68,120l-5.82-6.51a.52.52,0,0,1,0-.73h0a.52.52,0,0,1,.73,0l5.81,6.52a.51.51,0,0,1,0,.72h0A.51.51,0,0,1,252.68,120Z"/><path class="bt" d="M251.06,123.7l-6.95-7.79a.51.51,0,0,1,0-.72h0a.51.51,0,0,1,.72,0l6.95,7.79a.51.51,0,0,1,0,.72h0A.51.51,0,0,1,251.06,123.7Z"/><path class="bu" d="M250.42,128.53l-9.07-10.16a.51.51,0,0,1,.05-.72h0a.51.51,0,0,1,.72,0l9.07,10.16a.51.51,0,0,1-.05.72h0A.51.51,0,0,1,250.42,128.53Z"/><rect class="bv" x="91.72" y="142.1" width="59.87" height="24.91" rx="4.03"/><path class="bw" d="M112.11,154.55a4.29,4.29,0,1,1-4.29-4.28A4.29,4.29,0,0,1,112.11,154.55Z"/><path class="bx" d="M139.27,150.23H119.72a.51.51,0,0,1-.5-.5h0a.51.51,0,0,1,.5-.5h19.55a.5.5,0,0,1,.5.5h0A.5.5,0,0,1,139.27,150.23Z"/><path class="by" d="M139.27,153.45H119.72a.51.51,0,0,1-.5-.5h0a.5.5,0,0,1,.5-.5h19.55a.5.5,0,0,1,.5.5h0A.5.5,0,0,1,139.27,153.45Z"/><path class="bz" d="M139.27,156.66H119.72a.5.5,0,0,1-.5-.5h0a.51.51,0,0,1,.5-.5h19.55a.5.5,0,0,1,.5.5h0A.5.5,0,0,1,139.27,156.66Z"/><path class="ca" d="M139.27,159.88H119.72a.51.51,0,0,1-.5-.5h0a.5.5,0,0,1,.5-.5h19.55a.5.5,0,0,1,.5.5h0A.5.5,0,0,1,139.27,159.88Z"/><path class="cb" d="M13.71,149.61a6.57,6.57,0,0,1-7.48-1.19C2.63,145.08,2.47,139.2,0,138,12.69,139.17,16.4,145.43,13.71,149.61Z"/><path class="cc" d="M21.43,159.13s-2.44-4.55-.76-8.55,6-7.58,5.78-9.33C29.61,153.46,28.41,158.17,21.43,159.13Z"/><path class="cd" d="M18,163a34.32,34.32,0,0,1,4.78-5c2.95-2.56,2-8.46,2-8.46"/><path class="ce" d="M18.8,185.46s2.75-34.79-10.42-41"/><path class="cf" d="M23.63,202.18H15.52a1.2,1.2,0,0,1-1.2-1.08l-1.61-15.63a1.19,1.19,0,0,1,1.19-1.32H25.24a1.2,1.2,0,0,1,1.2,1.32L24.83,201.1A1.2,1.2,0,0,1,23.63,202.18Z"/><path class="cg" d="M293.43,169.66s-1.68-33.44,16.76-46.17C307.19,149.43,293.43,169.66,293.43,169.66Z"/><path class="ch" d="M293.76,170.1s-11.43-17.56-5.47-30.25A71.74,71.74,0,0,1,293.76,170.1Z"/><path class="d" d="M293.39,169.66S282.06,162.8,282,154A45.35,45.35,0,0,1,293.39,169.66Z"/><path class="ci" d="M297,202.18H286.67a2.4,2.4,0,0,1-2.39-2.15l-3.22-31.19a2.39,2.39,0,0,1,2.39-2.64h16.77a2.4,2.4,0,0,1,2.39,2.64L299.39,200A2.41,2.41,0,0,1,297,202.18Z"/></g></svg>